# xmcd
# 
# Track frame offsets:
#     150
#     14940
#     28362
#     40810
#     55702
#     67510
#     80092
#     93662
#     108240
#     121340
#     135475
#     148822
# 
# Disc length: 2151
# 
# Revision: 1
# Processed by: cddbd v1.5.1PL0 Copyright (c) Steve Scherf et al.
# Submitted via: BonkEnc v1.0beta3
# 
DISCID=a708650c
DTITLE=The Four Tops - The Four Tops - 1996 - Greatest Hits CD 1
DYEAR=1900
DGENRE=
TTITLE0=Reach out (I'll be there)
TTITLE1=Baby I need your lovin'
TTITLE2=I can't help myself
TTITLE3=Ain't no woman
TTITLE4=It's all in the game
TTITLE5=It's the same old song
TTITLE6=Just seven numbers
TTITLE7=Bernadette
TTITLE8=Shake me, wake me
TTITLE9=You keep runnin' away
TTITLE10=Something about you
TTITLE11=Walk away Renee
EXTD=
EXTT0=
EXTT1=
EXTT2=
EXTT3=
EXTT4=
EXTT5=
EXTT6=
EXTT7=
EXTT8=
EXTT9=
EXTT10=
EXTT11=
PLAYORDER=
